<?xml version="1.0" encoding="UTF-8"?>
<svg width="30px" height="26px" viewBox="0 0 30 26" version="1.1" xmlns="http://www.w3.org/2000/svg" xmlns:xlink="http://www.w3.org/1999/xlink">
    <!-- Generator: Sketch 41.1 (35376) - http://www.bohemiancoding.com/sketch -->
    <title>education</title>
    <desc>Created with Sketch.</desc>
    <defs></defs>
    <g id="Page-1" stroke="none" stroke-width="1" fill="none" fill-rule="evenodd">
        <g id="Bean-Resume" transform="translate(-485.000000, -550.000000)" fill="#1D1D1F">
            <g id="section-1" transform="translate(450.000000, 513.000000)">
                <g id="work-experience" transform="translate(20.000000, 20.000000)">
                    <path d="M30,17 L45,24.515625 L38.8392857,28.578125 L30,34.3333333 L19.2857143,27.4270833 L19.2857143,40.8333333 L17.1428571,39.75 L17.1428571,26.0052083 L15,24.5833333 L30,17 Z M38.9732143,30 L39.6428571,35.5520833 C39.5089279,35.6423616 38.9620584,36.0373229 38.0022321,36.7369792 C37.0424059,37.4366354 36.1049153,38.1249966 35.1897321,38.8020833 C34.274549,39.4791701 33.3035766,40.2239543 32.2767857,41.0364583 C31.2499949,41.8489624 30.4910739,42.5034697 30,43 C29.5089261,42.5034697 28.7500051,41.8489624 27.7232143,41.0364583 C26.6964234,40.2239543 25.725451,39.4791701 24.8102679,38.8020833 C23.8950847,38.1249966 22.9575941,37.4366354 21.9977679,36.7369792 C21.0379416,36.0373229 20.4910721,35.6423616 20.3571429,35.5520833 L20.9598214,30 L30,35.9583333 L38.9732143,30 Z" id="education"></path>
                </g>
            </g>
        </g>
    </g>
</svg>