<?xml version="1.0" encoding="UTF-8"?>
<svg width="23px" height="11px" viewBox="0 0 23 11" version="1.1" xmlns="http://www.w3.org/2000/svg" xmlns:xlink="http://www.w3.org/1999/xlink">
    <!-- Generator: Sketch 41.2 (35397) - http://www.bohemiancoding.com/sketch -->
    <title></title>
    <desc>Created with Sketch.</desc>
    <defs></defs>
    <g id="Page-1" stroke="none" stroke-width="1" fill="none" fill-rule="evenodd">
        <g id="Bean-Home" transform="translate(-588.000000, -790.000000)" fill="#000000">
            <g id="ipad" transform="translate(302.000000, 649.000000)">
                <g id="RLP" transform="translate(54.000000, 9.000000)">
                    <path d="M249.916667,132 C251.17709,132 252.256072,132.44878 253.153646,133.346354 C254.05122,134.243928 254.5,135.32291 254.5,136.583333 L254.5,138.416667 C254.5,139.67709 254.05122,140.756072 253.153646,141.653646 C252.256072,142.55122 251.17709,143 249.916667,143 L243.5,143 C241.552074,143 240.15799,142.083343 239.317708,140.25 C239.050346,139.600691 238.916667,138.989586 238.916667,138.416667 L238.916667,136.583333 L241.666667,136.583333 L241.666667,138.416667 C241.666667,138.951392 241.83854,139.390623 242.182292,139.734375 C242.526043,140.078127 242.965275,140.25 243.5,140.25 L249.916667,140.25 C250.451392,140.25 250.890623,140.078127 251.234375,139.734375 C251.578127,139.390623 251.75,138.951392 251.75,138.416667 L251.75,136.583333 C251.75,136.048608 251.578127,135.609377 251.234375,135.265625 C250.890623,134.921873 250.451392,134.75 249.916667,134.75 L249,134.75 C248.885416,134.215275 248.675349,133.718752 248.369792,133.260417 C248.064235,132.802081 247.777779,132.477432 247.510417,132.286458 L247.166667,132 L249.916667,132 Z M247.739583,134.75 C247.968751,135.32292 248.083333,135.934025 248.083333,136.583333 L248.083333,138.416667 L245.333333,138.416667 L245.333333,136.583333 C245.333333,136.048608 245.16146,135.609377 244.817708,135.265625 C244.473957,134.921873 244.034725,134.75 243.5,134.75 L237.083333,134.75 C236.548608,134.75 236.109377,134.921873 235.765625,135.265625 C235.421873,135.609377 235.25,136.048608 235.25,136.583333 L235.25,138.416667 C235.25,138.951392 235.421873,139.390623 235.765625,139.734375 C236.109377,140.078127 236.548608,140.25 237.083333,140.25 L238,140.25 C238.114584,140.784725 238.324651,141.281248 238.630208,141.739583 C238.935765,142.197919 239.222221,142.522568 239.489583,142.713542 L239.833333,143 L237.083333,143 C235.82291,143 234.743928,142.55122 233.846354,141.653646 C232.94878,140.756072 232.5,139.67709 232.5,138.416667 L232.5,136.583333 C232.5,135.32291 232.94878,134.243928 233.846354,133.346354 C234.743928,132.44878 235.82291,132 237.083333,132 L243.5,132 C244.416671,132 245.266489,132.25781 246.049479,132.773438 C246.832469,133.289065 247.395832,133.947913 247.739583,134.75 Z" id=""></path>
                </g>
            </g>
        </g>
    </g>
</svg>