<?xml version="1.0" encoding="UTF-8"?>
<svg width="124px" height="125px" viewBox="0 0 124 125" version="1.1" xmlns="http://www.w3.org/2000/svg" xmlns:xlink="http://www.w3.org/1999/xlink">
    <!-- Generator: Sketch 41.1 (35376) - http://www.bohemiancoding.com/sketch -->
    <title>slack_icon</title>
    <desc>Created with Sketch.</desc>
    <defs></defs>
    <g id="Page-1" stroke="none" stroke-width="1" fill="none" fill-rule="evenodd">
        <g id="Bean-Home" transform="translate(-222.000000, -1211.000000)">
            <g id="slack" transform="translate(210.000000, 1200.000000)">
                <g id="slack_icon" transform="translate(12.000000, 11.000000)">
                    <path d="M2.44911316,66.7201926 C-5.08678443,44.8343568 6.5472177,20.9829579 28.4319747,13.4474318 L58.1943334,3.19942984 C80.0801692,-4.33646775 103.931568,7.29753438 111.467094,29.1822914 L121.715096,58.9446501 C129.250994,80.8304859 117.616992,104.681885 95.7322347,112.217411 L65.9698759,122.465413 C44.0840401,130.00131 20.2326413,118.367308 12.6971151,96.4825513 L2.44911316,66.7201926 Z" id="Rectangle" fill="#44D791"></path>
                    <g id="slack" transform="translate(20.987952, 21.987952)" fill="#FFFFFF">
                        <g id="Group">
                            <path d="M53.1758183,5.07473671 C51.9293209,1.23775706 47.8086186,-0.86192534 43.9723113,0.385244323 C40.1353317,1.63174165 38.0356491,5.75244401 39.2828188,9.58875134 L58.1698756,67.699462 C59.4667977,71.2836462 63.3387384,73.2979427 67.055371,72.2282677 C70.9320182,71.1122024 73.2952535,66.9948616 72.0581687,63.1874645 C72.0111057,63.0422415 53.1758183,5.07473671 53.1758183,5.07473671" id="Shape"></path>
                            <path d="M23.9106964,14.5834809 C22.6635267,10.7471736 18.5428244,8.64749123 14.7065171,9.89398854 C10.8695374,11.1404859 8.76985503,15.2611882 10.0170247,19.0981679 L28.9040814,77.2088785 C30.2010034,80.7930627 34.0729442,82.8073592 37.7895768,81.737012 C41.666224,80.6216189 44.0294593,76.5042781 42.7923745,72.6962085 C42.7453115,72.551658 23.9106964,14.5834809 23.9106964,14.5834809" id="Shape"></path>
                            <path d="M76.9493597,53.2020391 C80.7863393,51.9555416 82.8853494,47.8348394 81.638852,43.9978599 C80.3923548,40.1615525 76.2716523,38.0618699 72.4353449,39.3083673 L14.3246344,58.1960964 C10.7404503,59.4923459 8.72615368,63.3642867 9.79582857,67.0809196 C10.9118941,70.9575668 15.0292348,73.3208018 18.836632,72.0837173 C18.981855,72.036654 76.9493597,53.2020391 76.9493597,53.2020391" id="Shape"></path>
                            <path d="M26.4359629,69.6149262 C30.2184839,68.3859095 35.093539,66.8019031 40.3249282,65.1022565 C39.0959115,61.3197355 37.5119051,56.4440079 35.8115859,51.2119464 L21.9219482,55.7266331 L26.4359629,69.6149262" id="Shape"></path>
                            <path d="M55.7017571,60.1055097 C60.952644,58.3998119 65.8330777,56.8137885 69.5907224,55.59284 C68.3617057,51.8103186 66.777027,46.9332466 65.0767079,41.6998404 L51.1870701,46.2145274 L55.7017571,60.1055097" id="Shape"></path>
                            <path d="M67.4406154,23.9362449 C71.2769228,22.6897476 73.3766051,18.5690452 72.130108,14.7320656 C70.8836105,10.8957583 66.762908,8.79607586 62.9259284,10.0425732 L4.81521785,28.9303022 C1.23103377,30.2265519 -0.783262886,34.0984925 0.287084337,37.8151254 C1.40247758,41.6917726 5.51981829,44.0550076 9.3278878,42.8179231 C9.47243848,42.7708598 67.4406154,23.9362449 67.4406154,23.9362449" id="Shape"></path>
                            <path d="M16.9245293,40.3498045 C20.7070504,39.1207875 25.5834501,37.5361089 30.8155118,35.8364623 C29.1098139,30.584903 27.5237906,25.7044693 26.3028418,21.9461521 L12.4098424,26.4615114 L16.9245293,40.3498045" id="Shape"></path>
                            <path d="M46.1896511,30.8410602 C51.4418827,29.1346901 56.3229887,27.5486668 60.0813059,26.3270456 C58.3749358,21.0748141 56.7889125,16.1930358 55.5672914,12.4340462 L41.6749644,16.9494055 L46.1896511,30.8410602" id="Shape"></path>
                        </g>
                    </g>
                </g>
            </g>
        </g>
    </g>
</svg>