<?xml version="1.0" encoding="UTF-8"?>
<svg width="30px" height="26px" viewBox="0 0 30 26" version="1.1" xmlns="http://www.w3.org/2000/svg" xmlns:xlink="http://www.w3.org/1999/xlink">
    <!-- Generator: Sketch 41.1 (35376) - http://www.bohemiancoding.com/sketch -->
    <title>summary</title>
    <desc>Created with Sketch.</desc>
    <defs></defs>
    <g id="Page-1" stroke="none" stroke-width="1" fill="none" fill-rule="evenodd">
        <g id="Bean-Resume" transform="translate(-485.000000, -117.000000)" fill="#1D1D1F">
            <g id="section-1" transform="translate(450.000000, 80.000000)">
                <g id="work-experience" transform="translate(20.000000, 20.000000)">
                    <path d="M43.577885,25 C44.2022312,25 44.6054487,25.1041656 44.7875497,25.3125 C44.9696507,25.5208344 45.0346858,25.8854141 44.9826569,26.40625 L44.0461423,40.9375 C43.9941135,41.3020852 43.9420854,41.5755199 43.8900566,41.7578125 C43.8380277,41.9401051 43.6819435,42.1093742 43.4217993,42.265625 C43.161655,42.4218758 42.8234726,42.5 42.4072418,42.5 L17.6676479,42.5 C17.0433017,42.5 16.6270771,42.369793 16.4189617,42.109375 C16.2108463,41.848957 16.0807762,41.4583359 16.0287473,40.9375 L15.0141898,26.5625 C14.9101322,25.5208281 15.3783848,25 16.4189617,25 L43.577885,25 Z M43.2657135,21.171875 L43.4217993,23.75 L16.5750475,23.75 C16.5750475,23.1249969 16.7311317,21.4843883 17.0433048,18.828125 C17.0953337,18.3593727 17.1993898,18.0338551 17.3554763,17.8515625 C17.5115629,17.6692699 17.6806541,17.5651043 17.8627551,17.5390625 C18.0448561,17.5130207 18.4220595,17.5 18.9943769,17.5 L24.8475931,17.5 C25.8881701,17.5 26.4864929,17.5390621 26.6425794,17.6171875 C26.798666,17.6953129 27.1628624,18.0468719 27.7351798,18.671875 C28.3074971,19.3489617 28.7497357,19.7395828 29.0619088,19.84375 C29.3740819,19.9479172 29.9984187,20 30.934938,20 L42.0950703,20 C42.875503,20 43.2657135,20.3906211 43.2657135,21.171875 Z" id="summary"></path>
                </g>
            </g>
        </g>
    </g>
</svg>